<?xml version="1.0" standalone="no"?>
<!DOCTYPE svg PUBLIC "-//W3C//DTD SVG 20010904//EN"
 "http://www.w3.org/TR/2001/REC-SVG-20010904/DTD/svg10.dtd">
<svg version="1.0" xmlns="http://www.w3.org/2000/svg"
 width="512.000000pt" height="512.000000pt" viewBox="0 0 512.000000 512.000000"
 preserveAspectRatio="xMidYMid meet">

<g transform="translate(0.000000,512.000000) scale(0.100000,-0.100000)"
fill="#000000" stroke="none">
<path d="M2860 4710 l0 -410 75 0 75 0 0 410 0 410 -75 0 -75 0 0 -410z"/>
<path d="M1059 4984 c-293 -53 -540 -206 -718 -444 -219 -294 -279 -679 -161
-1032 34 -102 65 -166 128 -263 58 -90 1137 -1178 1256 -1266 44 -32 121 -79
172 -104 l93 -46 46 -93 c25 -51 72 -128 104 -172 76 -102 1175 -1197 1251
-1246 207 -134 414 -198 640 -198 482 0 918 312 1069 766 113 340 66 692 -133
999 -53 81 -1143 1177 -1250 1256 -44 32 -121 79 -172 104 l-93 46 -46 93
c-25 51 -72 128 -104 172 -36 48 -278 298 -627 645 -575 572 -617 610 -762
683 -195 99 -476 140 -693 100z m288 -145 c114 -12 241 -48 326 -90 152 -76
189 -110 748 -668 495 -495 577 -583 653 -703 l18 -27 -126 6 -126 6 -503 505
c-276 277 -535 533 -575 567 -88 76 -204 138 -309 166 -109 29 -279 29 -387 0
-338 -90 -566 -388 -566 -735 0 -192 55 -347 176 -496 75 -93 1050 -1060 1107
-1099 116 -79 249 -124 402 -136 225 -19 502 110 642 298 77 104 153 284 153
364 0 26 14 29 75 12 85 -23 135 -50 135 -73 0 -46 -42 -184 -81 -265 -259
-547 -947 -723 -1449 -373 -100 70 -1155 1129 -1212 1217 -66 101 -104 182
-132 278 -101 348 -9 713 245 966 178 179 387 268 672 290 10 0 61 -4 114 -10z
m105 -398 c126 -40 182 -89 703 -610 269 -270 487 -492 485 -494 -3 -2 -43
-16 -90 -30 -285 -88 -534 -301 -671 -575 -26 -52 -57 -129 -70 -173 -12 -43
-25 -79 -29 -79 -3 0 -233 228 -512 508 -499 500 -506 508 -547 592 -123 252
-82 520 109 710 130 131 265 183 450 176 71 -2 127 -11 172 -25z m1364 -1664
c-33 -220 -253 -440 -474 -473 l-45 -7 7 45 c22 145 131 304 269 392 72 46
167 82 226 85 22 1 23 -1 17 -42z m1036 -644 c499 -501 506 -509 547 -593 68
-140 84 -258 56 -405 -44 -231 -228 -419 -461 -471 -96 -21 -231 -15 -326 15
-126 40 -182 89 -703 610 -269 270 -487 492 -485 494 3 2 43 16 90 30 222 68
439 226 581 422 59 82 132 231 160 326 12 43 25 79 29 79 3 0 233 -228 512
-507z"/>
<path d="M4037 4142 l-287 -287 53 -53 52 -52 288 288 287 287 -53 53 -52 52
-288 -288z"/>
<path d="M4300 2935 l0 -75 410 0 410 0 0 75 0 75 -410 0 -410 0 0 -75z"/>
<path d="M0 2185 l0 -75 410 0 410 0 0 75 0 75 -410 0 -410 0 0 -75z"/>
<path d="M977 1082 l-287 -287 53 -53 52 -52 288 288 287 287 -53 53 -52 52
-288 -288z"/>
<path d="M2110 410 l0 -410 75 0 75 0 0 410 0 410 -75 0 -75 0 0 -410z"/>
</g>
</svg>
