<?xml version="1.0" standalone="no"?>
<!DOCTYPE svg PUBLIC "-//W3C//DTD SVG 20010904//EN"
 "http://www.w3.org/TR/2001/REC-SVG-20010904/DTD/svg10.dtd">
<svg version="1.0" xmlns="http://www.w3.org/2000/svg"
 viewBox="0 0 512.000000 512.000000"
 preserveAspectRatio="xMidYMid meet">

<g transform="translate(0.000000,512.000000) scale(0.100000,-0.100000)"
fill="#000000" stroke="none">
<path d="M1385 5110 c-483 -36 -916 -304 -1169 -723 -90 -150 -153 -319 -192
-517 -15 -76 -17 -208 -21 -1195 -4 -1157 0 -1332 36 -1496 63 -283 198 -527
406 -734 263 -263 581 -408 954 -435 164 -12 2158 -12 2322 0 277 20 506 98
734 251 384 257 621 668 655 1138 12 164 12 2158 0 2322 -14 190 -50 340 -125
511 -171 389 -534 706 -943 823 -213 60 -152 58 -1407 60 -632 2 -1195 -1
-1250 -5z m1504 -945 c739 -105 1348 -566 1520 -1152 55 -188 67 -418 32 -601
-88 -452 -402 -837 -881 -1077 -482 -242 -1076 -297 -1610 -149 -52 14 -99 26
-105 27 -5 0 -202 -63 -436 -141 -234 -78 -433 -142 -443 -142 -56 0 -116 58
-116 112 0 13 47 164 105 337 l104 313 -68 82 c-172 206 -276 424 -317 663
-22 131 -15 382 15 500 67 267 210 507 424 709 325 308 755 489 1277 538 89 8
387 -3 499 -19z"/>
<path d="M1622 2934 c-61 -23 -145 -103 -173 -166 -31 -72 -32 -174 0 -243 28
-63 81 -119 146 -153 67 -35 186 -38 256 -5 63 28 120 82 149 140 32 63 39
171 16 241 -22 65 -85 136 -150 169 -64 33 -178 41 -244 17z"/>
<path d="M2452 2933 c-61 -21 -145 -102 -172 -165 -34 -78 -32 -178 4 -252 69
-142 235 -210 380 -156 165 62 245 248 176 408 -28 66 -111 144 -176 166 -59
20 -155 19 -212 -1z"/>
<path d="M3285 2932 c-70 -23 -156 -109 -179 -180 -22 -66 -18 -180 8 -233 29
-62 84 -116 144 -146 48 -24 69 -28 137 -28 67 0 88 5 130 27 109 58 169 154
169 273 0 94 -30 160 -100 224 -86 79 -195 101 -309 63z"/>
</g>
</svg>
