<?xml version="1.0" standalone="no"?>
<!DOCTYPE svg PUBLIC "-//W3C//DTD SVG 20010904//EN"
 "http://www.w3.org/TR/2001/REC-SVG-20010904/DTD/svg10.dtd">
<svg version="1.0" xmlns="http://www.w3.org/2000/svg"
 width="512.000000pt" height="512.000000pt" viewBox="0 0 512.000000 512.000000"
 preserveAspectRatio="xMidYMid meet">

<g transform="translate(0.000000,512.000000) scale(0.100000,-0.100000)"
fill="#000000" stroke="none">
<path d="M2330 4949 c-341 -35 -693 -150 -978 -318 l-52 -31 -50 38 c-123 93
-281 106 -425 34 -35 -17 -108 -82 -237 -211 -218 -216 -219 -218 -146 -297
l41 -45 -121 -123 c-105 -106 -122 -127 -122 -155 0 -43 38 -81 81 -81 28 0
49 17 156 122 l123 122 102 -102 102 -102 -122 -123 c-105 -107 -122 -128
-122 -156 0 -43 38 -81 81 -81 28 0 49 17 155 122 l123 121 45 -41 c79 -73 81
-72 297 146 110 109 195 205 208 230 73 144 62 305 -30 434 -26 37 -36 28 144
118 584 289 1270 305 1876 43 684 -295 1174 -912 1315 -1653 41 -216 46 -527
11 -745 -172 -1099 -1111 -1905 -2220 -1905 -1159 0 -2123 878 -2236 2035 -14
143 -6 408 15 545 8 52 30 149 47 215 17 66 34 141 36 166 4 41 2 49 -22 68
-61 48 -112 15 -143 -91 -142 -485 -134 -972 24 -1447 239 -718 797 -1276
1514 -1515 552 -183 1124 -166 1660 51 906 366 1500 1248 1500 2229 0 930
-559 1797 -1404 2178 -383 172 -824 246 -1226 205z"/>
<path d="M2410 4154 c-442 -52 -827 -259 -1087 -581 -174 -217 -280 -444 -335
-718 -32 -157 -32 -431 0 -592 64 -322 214 -605 442 -833 484 -483 1222 -606
1836 -304 320 157 595 436 742 753 47 101 106 287 128 401 27 144 26 428 -4
575 -130 653 -618 1144 -1267 1275 -97 20 -370 34 -455 24z m418 -179 c509
-99 933 -470 1097 -958 55 -165 69 -257 69 -457 0 -152 -4 -202 -22 -282 -65
-297 -189 -526 -397 -733 -207 -208 -436 -332 -733 -397 -140 -31 -424 -31
-564 0 -296 65 -527 190 -733 397 -210 209 -343 458 -402 752 -26 132 -24 415
5 545 65 297 189 526 397 733 231 231 521 375 837 415 102 12 347 5 446 -15z"/>
<path d="M2672 3663 c-11 -10 -219 -308 -463 -663 -303 -441 -444 -655 -447
-677 -3 -24 2 -38 22 -57 l25 -26 312 0 311 0 -5 -22 c-3 -13 -29 -179 -58
-370 -50 -330 -51 -348 -36 -372 19 -29 55 -41 91 -32 33 8 928 1305 934 1353
3 24 -2 38 -22 57 l-25 26 -311 0 -311 0 6 33 c17 98 105 683 105 699 0 10
-11 30 -25 43 -29 30 -74 33 -103 8z"/>
</g>
</svg>
